<?xml version="1.0" encoding="utf-8"?>
<!-- Generator: Adobe Illustrator 18.0.0, SVG Export Plug-In . SVG Version: 6.00 Build 0)  -->
<!DOCTYPE svg PUBLIC "-//W3C//DTD SVG 1.1//EN" "http://www.w3.org/Graphics/SVG/1.1/DTD/svg11.dtd">
<svg version="1.1" id="Layer_1" xmlns="http://www.w3.org/2000/svg" xmlns:xlink="http://www.w3.org/1999/xlink" x="0px" y="0px"
	 viewBox="0 0 40 32" enable-background="new 0 0 40 32" xml:space="preserve">
<path fill="#FFFFFF" d="M38,32H2c-1.1,0-2-0.9-2-2v-1c0-1.1,0.9-2,2-2h36c1.1,0,2,0.9,2,2v1C40,31.1,39.1,32,38,32z"/>
<path fill="#FFFFFF" d="M38,5H2C0.9,5,0,4.1,0,3V2c0-1.1,0.9-2,2-2l36,0c1.1,0,2,0.9,2,2v1C40,4.1,39.1,5,38,5z"/>
<path fill="#FFFFFF" d="M38,18.5H2c-1.1,0-2-0.9-2-2v-1c0-1.1,0.9-2,2-2h36c1.1,0,2,0.9,2,2v1C40,17.6,39.1,18.5,38,18.5z"/>
</svg>
