<?xml version="1.0" encoding="utf-8"?>
<!-- Generator: Adobe Illustrator 18.0.0, SVG Export Plug-In . SVG Version: 6.00 Build 0)  -->
<!DOCTYPE svg PUBLIC "-//W3C//DTD SVG 1.1//EN" "http://www.w3.org/Graphics/SVG/1.1/DTD/svg11.dtd">
<svg version="1.1" id="Layer_1" xmlns="http://www.w3.org/2000/svg" xmlns:xlink="http://www.w3.org/1999/xlink" x="0px" y="0px"
	 viewBox="-6 59 794 476" enable-background="new -6 59 794 476" xml:space="preserve">
<g>
	<g>
		<rect x="75.5" y="139.4" fill="none" stroke="#EEEEEE" stroke-miterlimit="10" width="72" height="72"/>
		<line fill="none" stroke="#EEEEEE" stroke-miterlimit="10" x1="75.5" y1="175.3" x2="147.7" y2="175.3"/>
	</g>
	<g>
		<rect x="233.9" y="139.4" fill="none" stroke="#EEEEEE" stroke-miterlimit="10" width="72" height="72"/>
		<line fill="none" stroke="#EEEEEE" stroke-miterlimit="10" x1="233.9" y1="139.4" x2="305.9" y2="211.4"/>
	</g>
	<g>
		<rect x="154.9" y="60.2" fill="none" stroke="#EEEEEE" stroke-miterlimit="10" width="72" height="72"/>
		<line fill="none" stroke="#EEEEEE" stroke-miterlimit="10" x1="154.9" y1="96.1" x2="226.9" y2="96.1"/>
		<line fill="none" stroke="#EEEEEE" stroke-miterlimit="10" x1="190.8" y1="60.2" x2="190.8" y2="132.2"/>
	</g>
	<g>
		<line fill="none" stroke="#EEEEEE" stroke-miterlimit="10" x1="313.3" y1="96.1" x2="384.9" y2="96.1"/>
		<rect x="313.3" y="60.3" fill="none" stroke="#EEEEEE" stroke-miterlimit="10" width="71.5" height="71.5"/>
		<line fill="none" stroke="#EEEEEE" stroke-miterlimit="10" x1="384.9" y1="60.3" x2="313.3" y2="131.9"/>
	</g>
	<g>
		<line fill="none" stroke="#EEEEEE" stroke-miterlimit="10" x1="75.7" y1="60.2" x2="147.7" y2="132.2"/>
		<rect x="75.7" y="60.2" fill="none" stroke="#EEEEEE" stroke-miterlimit="10" width="72" height="72"/>
		<line fill="none" stroke="#EEEEEE" stroke-miterlimit="10" x1="111.6" y1="60.2" x2="111.6" y2="132.2"/>
	</g>
	<g>
		<line fill="none" stroke="#EEEEEE" stroke-miterlimit="10" x1="313.1" y1="139.4" x2="385.1" y2="211.4"/>
		<rect x="313.1" y="139.4" fill="none" stroke="#EEEEEE" stroke-miterlimit="10" width="72" height="72"/>
		<line fill="none" stroke="#EEEEEE" stroke-miterlimit="10" x1="385.1" y1="139.4" x2="313.1" y2="211.4"/>
	</g>
	<g>
		<line fill="none" stroke="#EEEEEE" stroke-miterlimit="10" x1="-3.7" y1="175.3" x2="68.5" y2="175.3"/>
		<rect x="-3.7" y="139.4" fill="none" stroke="#EEEEEE" stroke-miterlimit="10" width="72" height="72"/>
		<line fill="none" stroke="#EEEEEE" stroke-miterlimit="10" x1="32.4" y1="139.4" x2="32.4" y2="211.4"/>
		<line fill="none" stroke="#EEEEEE" stroke-miterlimit="10" x1="68.5" y1="139.4" x2="-3.7" y2="211.4"/>
	</g>
	<g>
		<line fill="none" stroke="#EEEEEE" stroke-miterlimit="10" x1="154.7" y1="175.3" x2="226.7" y2="175.3"/>
		<line fill="none" stroke="#EEEEEE" stroke-miterlimit="10" x1="154.7" y1="139.4" x2="226.7" y2="211.4"/>
		<rect x="154.7" y="139.4" fill="none" stroke="#EEEEEE" stroke-miterlimit="10" width="72" height="72"/>
		<line fill="none" stroke="#EEEEEE" stroke-miterlimit="10" x1="226.7" y1="139.4" x2="154.7" y2="211.4"/>
	</g>
	<g>
		<line fill="none" stroke="#EEEEEE" stroke-miterlimit="10" x1="-3.7" y1="60.2" x2="68.5" y2="132.2"/>
		<rect x="-3.7" y="60.2" fill="none" stroke="#EEEEEE" stroke-miterlimit="10" width="72" height="72"/>
		<line fill="none" stroke="#EEEEEE" stroke-miterlimit="10" x1="68.5" y1="60.2" x2="-3.7" y2="132.2"/>
		<line fill="none" stroke="#EEEEEE" stroke-miterlimit="10" x1="32.4" y1="60.2" x2="32.4" y2="132.2"/>
	</g>
	<g>
		<line fill="none" stroke="#EEEEEE" stroke-miterlimit="10" x1="234.1" y1="60.2" x2="306.1" y2="132.2"/>
		<line fill="none" stroke="#EEEEEE" stroke-miterlimit="10" x1="234.1" y1="96.1" x2="306.1" y2="96.1"/>
		<rect x="234.1" y="60.2" fill="none" stroke="#EEEEEE" stroke-miterlimit="10" width="72" height="72"/>
		<line fill="none" stroke="#EEEEEE" stroke-miterlimit="10" x1="270.1" y1="60.2" x2="270.1" y2="132.2"/>
		<line fill="none" stroke="#EEEEEE" stroke-miterlimit="10" x1="306.1" y1="60.2" x2="234.1" y2="132.2"/>
	</g>
	<g>
		<rect x="471" y="297.8" fill="none" stroke="#EEEEEE" stroke-miterlimit="10" width="72" height="72"/>
		<line fill="none" stroke="#EEEEEE" stroke-miterlimit="10" x1="471" y1="333.9" x2="543" y2="333.9"/>
	</g>
	<g>
		<rect x="629.6" y="298.3" fill="none" stroke="#EEEEEE" stroke-miterlimit="10" width="71.5" height="71.5"/>
		<line fill="none" stroke="#EEEEEE" stroke-miterlimit="10" x1="629.6" y1="298.3" x2="701.3" y2="369.8"/>
	</g>
	<g>
		<rect x="549.9" y="218.6" fill="none" stroke="#EEEEEE" stroke-miterlimit="10" width="72" height="72"/>
		<line fill="none" stroke="#EEEEEE" stroke-miterlimit="10" x1="549.9" y1="254.5" x2="621.9" y2="254.5"/>
		<line fill="none" stroke="#EEEEEE" stroke-miterlimit="10" x1="586" y1="218.6" x2="586" y2="290.6"/>
	</g>
	<g>
		<line fill="none" stroke="#EEEEEE" stroke-miterlimit="10" x1="708.5" y1="254.5" x2="780.5" y2="254.5"/>
		<rect x="708.5" y="218.6" fill="none" stroke="#EEEEEE" stroke-miterlimit="10" width="72" height="72"/>
		<line fill="none" stroke="#EEEEEE" stroke-miterlimit="10" x1="780.5" y1="218.6" x2="708.5" y2="290.6"/>
	</g>
	<g>
		<line fill="none" stroke="#EEEEEE" stroke-miterlimit="10" x1="470.6" y1="218.6" x2="542.7" y2="290.6"/>
		<rect x="470.6" y="218.6" fill="none" stroke="#EEEEEE" stroke-miterlimit="10" width="72" height="72"/>
		<line fill="none" stroke="#EEEEEE" stroke-miterlimit="10" x1="506.6" y1="218.6" x2="506.6" y2="290.6"/>
	</g>
	<g>
		<line fill="none" stroke="#EEEEEE" stroke-miterlimit="10" x1="708.5" y1="297.8" x2="780.5" y2="369.8"/>
		<rect x="708.5" y="297.8" fill="none" stroke="#EEEEEE" stroke-miterlimit="10" width="72" height="72"/>
		<line fill="none" stroke="#EEEEEE" stroke-miterlimit="10" x1="780.5" y1="297.8" x2="708.5" y2="369.8"/>
	</g>
	<g>
		<line fill="none" stroke="#EEEEEE" stroke-miterlimit="10" x1="392.2" y1="334" x2="463.7" y2="334"/>
		<rect x="392.2" y="298.3" fill="none" stroke="#EEEEEE" stroke-miterlimit="10" width="71.5" height="71.5"/>
		<line fill="none" stroke="#EEEEEE" stroke-miterlimit="10" x1="427.9" y1="298.3" x2="427.9" y2="369.8"/>
		<line fill="none" stroke="#EEEEEE" stroke-miterlimit="10" x1="463.7" y1="298.3" x2="392.2" y2="369.8"/>
	</g>
	<g>
		<line fill="none" stroke="#EEEEEE" stroke-miterlimit="10" x1="550.4" y1="333.9" x2="622.4" y2="333.9"/>
		<line fill="none" stroke="#EEEEEE" stroke-miterlimit="10" x1="550.4" y1="297.8" x2="622.4" y2="369.8"/>
		<rect x="550.4" y="297.8" fill="none" stroke="#EEEEEE" stroke-miterlimit="10" width="72" height="72"/>
		<line fill="none" stroke="#EEEEEE" stroke-miterlimit="10" x1="622.4" y1="297.8" x2="550.4" y2="369.8"/>
	</g>
	<g>
		<line fill="none" stroke="#EEEEEE" stroke-miterlimit="10" x1="391.4" y1="218.6" x2="463.4" y2="290.6"/>
		<rect x="391.4" y="218.6" fill="none" stroke="#EEEEEE" stroke-miterlimit="10" width="72" height="72"/>
		<line fill="none" stroke="#EEEEEE" stroke-miterlimit="10" x1="463.4" y1="218.6" x2="391.4" y2="290.6"/>
		<line fill="none" stroke="#EEEEEE" stroke-miterlimit="10" x1="427.3" y1="218.6" x2="427.3" y2="290.6"/>
	</g>
	<g>
		<line fill="none" stroke="#EEEEEE" stroke-miterlimit="10" x1="629.3" y1="218.6" x2="701.3" y2="290.6"/>
		<line fill="none" stroke="#EEEEEE" stroke-miterlimit="10" x1="629.3" y1="254.5" x2="701.3" y2="254.5"/>
		<rect x="629.3" y="218.6" fill="none" stroke="#EEEEEE" stroke-miterlimit="10" width="72" height="72"/>
		<line fill="none" stroke="#EEEEEE" stroke-miterlimit="10" x1="665.2" y1="218.6" x2="665.2" y2="290.6"/>
		<line fill="none" stroke="#EEEEEE" stroke-miterlimit="10" x1="701.3" y1="218.6" x2="629.3" y2="290.6"/>
	</g>
	<g>
		<rect x="154.4" y="219.1" fill="none" stroke="#EEEEEE" stroke-miterlimit="10" width="71.5" height="71.5"/>
		<line fill="none" stroke="#EEEEEE" stroke-miterlimit="10" x1="154.4" y1="254.8" x2="225.9" y2="254.8"/>
	</g>
	<g>
		<rect x="75.5" y="218.9" fill="none" stroke="#EEEEEE" stroke-miterlimit="10" width="71.7" height="71.7"/>
		<line fill="none" stroke="#EEEEEE" stroke-miterlimit="10" x1="75.5" y1="218.9" x2="147" y2="290.6"/>
	</g>
	<g>
		<rect x="75.7" y="298.3" fill="none" stroke="#EEEEEE" stroke-miterlimit="10" width="71.5" height="71.5"/>
		<line fill="none" stroke="#EEEEEE" stroke-miterlimit="10" x1="75.7" y1="334" x2="147.3" y2="334"/>
		<line fill="none" stroke="#EEEEEE" stroke-miterlimit="10" x1="111.4" y1="298.3" x2="111.4" y2="369.8"/>
	</g>
	<g>
		<line fill="none" stroke="#EEEEEE" stroke-miterlimit="10" x1="-3.4" y1="254.8" x2="68.1" y2="254.8"/>
		<rect x="-3.4" y="218.9" fill="none" stroke="#EEEEEE" stroke-miterlimit="10" width="71.7" height="71.7"/>
		<line fill="none" stroke="#EEEEEE" stroke-miterlimit="10" x1="68.1" y1="218.9" x2="-3.4" y2="290.6"/>
	</g>
	<g>
		<line fill="none" stroke="#EEEEEE" stroke-miterlimit="10" x1="233.4" y1="297.8" x2="305.6" y2="369.8"/>
		<rect x="233.4" y="297.8" fill="none" stroke="#EEEEEE" stroke-miterlimit="10" width="72" height="72"/>
		<line fill="none" stroke="#EEEEEE" stroke-miterlimit="10" x1="269.5" y1="297.8" x2="269.5" y2="369.8"/>
	</g>
	<g>
		<line fill="none" stroke="#EEEEEE" stroke-miterlimit="10" x1="-3.5" y1="297.8" x2="68.5" y2="369.8"/>
		<rect x="-3.5" y="297.8" fill="none" stroke="#EEEEEE" stroke-miterlimit="10" width="72" height="72"/>
		<line fill="none" stroke="#EEEEEE" stroke-miterlimit="10" x1="68.5" y1="297.8" x2="-3.5" y2="369.8"/>
	</g>
	<g>
		<line fill="none" stroke="#EEEEEE" stroke-miterlimit="10" x1="312.5" y1="254.8" x2="384" y2="254.8"/>
		<rect x="312.5" y="219.1" fill="none" stroke="#EEEEEE" stroke-miterlimit="10" width="71.5" height="71.5"/>
		<line fill="none" stroke="#EEEEEE" stroke-miterlimit="10" x1="348.2" y1="219.1" x2="348.2" y2="290.6"/>
		<line fill="none" stroke="#EEEEEE" stroke-miterlimit="10" x1="384" y1="219.1" x2="312.5" y2="290.6"/>
	</g>
	<g>
		<line fill="none" stroke="#EEEEEE" stroke-miterlimit="10" x1="154.6" y1="334" x2="226.2" y2="334"/>
		<line fill="none" stroke="#EEEEEE" stroke-miterlimit="10" x1="154.6" y1="298.3" x2="226.2" y2="369.8"/>
		<rect x="154.6" y="298.3" fill="none" stroke="#EEEEEE" stroke-miterlimit="10" width="71.7" height="71.7"/>
		<line fill="none" stroke="#EEEEEE" stroke-miterlimit="10" x1="226.2" y1="298.3" x2="154.6" y2="369.8"/>
	</g>
	<g>
		<line fill="none" stroke="#EEEEEE" stroke-miterlimit="10" x1="312.8" y1="297.8" x2="384.8" y2="369.8"/>
		<rect x="312.8" y="297.8" fill="none" stroke="#EEEEEE" stroke-miterlimit="10" width="72" height="72"/>
		<line fill="none" stroke="#EEEEEE" stroke-miterlimit="10" x1="384.8" y1="297.8" x2="312.8" y2="369.8"/>
		<line fill="none" stroke="#EEEEEE" stroke-miterlimit="10" x1="348.9" y1="297.8" x2="348.9" y2="369.8"/>
	</g>
	<g>
		<line fill="none" stroke="#EEEEEE" stroke-miterlimit="10" x1="233.1" y1="218.6" x2="305.3" y2="290.6"/>
		<line fill="none" stroke="#EEEEEE" stroke-miterlimit="10" x1="233.1" y1="254.5" x2="305.3" y2="254.5"/>
		<rect x="233.1" y="218.6" fill="none" stroke="#EEEEEE" stroke-miterlimit="10" width="72" height="72"/>
		<line fill="none" stroke="#EEEEEE" stroke-miterlimit="10" x1="269.2" y1="218.6" x2="269.2" y2="290.6"/>
		<line fill="none" stroke="#EEEEEE" stroke-miterlimit="10" x1="305.3" y1="218.6" x2="233.1" y2="290.6"/>
	</g>
	<g>
		<rect x="550.2" y="377" fill="none" stroke="#EEEEEE" stroke-miterlimit="10" width="72" height="72"/>
		<line fill="none" stroke="#EEEEEE" stroke-miterlimit="10" x1="550.2" y1="413.1" x2="622.2" y2="413.1"/>
	</g>
	<g>
		<rect x="471.2" y="377" fill="none" stroke="#EEEEEE" stroke-miterlimit="10" width="72" height="72"/>
		<line fill="none" stroke="#EEEEEE" stroke-miterlimit="10" x1="471.2" y1="377" x2="543.2" y2="449"/>
	</g>
	<g>
		<rect x="471.7" y="456.7" fill="none" stroke="#EEEEEE" stroke-miterlimit="10" width="71.5" height="71.5"/>
		<line fill="none" stroke="#EEEEEE" stroke-miterlimit="10" x1="471.7" y1="492.4" x2="543.3" y2="492.4"/>
		<line fill="none" stroke="#EEEEEE" stroke-miterlimit="10" x1="507.6" y1="456.7" x2="507.6" y2="528.3"/>
	</g>
	<g>
		<line fill="none" stroke="#EEEEEE" stroke-miterlimit="10" x1="392" y1="413.1" x2="464" y2="413.1"/>
		<rect x="392" y="377" fill="none" stroke="#EEEEEE" stroke-miterlimit="10" width="72" height="72"/>
		<line fill="none" stroke="#EEEEEE" stroke-miterlimit="10" x1="464" y1="377" x2="392" y2="449"/>
	</g>
	<g>
		<line fill="none" stroke="#EEEEEE" stroke-miterlimit="10" x1="629.8" y1="456.2" x2="701.7" y2="528.3"/>
		<rect x="629.8" y="456.2" fill="none" stroke="#EEEEEE" stroke-miterlimit="10" width="72" height="72"/>
		<line fill="none" stroke="#EEEEEE" stroke-miterlimit="10" x1="665.8" y1="456.2" x2="665.8" y2="528.3"/>
	</g>
	<g>
		<line fill="none" stroke="#EEEEEE" stroke-miterlimit="10" x1="392.5" y1="456.2" x2="464.6" y2="528.3"/>
		<rect x="392.5" y="456.2" fill="none" stroke="#EEEEEE" stroke-miterlimit="10" width="72" height="72"/>
		<line fill="none" stroke="#EEEEEE" stroke-miterlimit="10" x1="464.6" y1="456.2" x2="392.5" y2="528.3"/>
	</g>
	<g>
		<line fill="none" stroke="#EEEEEE" stroke-miterlimit="10" x1="708.5" y1="412.7" x2="780.2" y2="412.7"/>
		<rect x="708.5" y="377" fill="none" stroke="#EEEEEE" stroke-miterlimit="10" width="71.5" height="71.5"/>
		<line fill="none" stroke="#EEEEEE" stroke-miterlimit="10" x1="744.2" y1="377" x2="744.2" y2="448.7"/>
		<line fill="none" stroke="#EEEEEE" stroke-miterlimit="10" x1="780.2" y1="377" x2="708.5" y2="448.7"/>
	</g>
	<g>
		<line fill="none" stroke="#EEEEEE" stroke-miterlimit="10" x1="550.6" y1="492.3" x2="622.5" y2="492.3"/>
		<line fill="none" stroke="#EEEEEE" stroke-miterlimit="10" x1="550.6" y1="456.2" x2="622.5" y2="528.3"/>
		<rect x="550.6" y="456.2" fill="none" stroke="#EEEEEE" stroke-miterlimit="10" width="72" height="72"/>
		<line fill="none" stroke="#EEEEEE" stroke-miterlimit="10" x1="622.5" y1="456.2" x2="550.6" y2="528.3"/>
	</g>
	<g>
		<line fill="none" stroke="#EEEEEE" stroke-miterlimit="10" x1="708.5" y1="456.2" x2="780.5" y2="528.3"/>
		<rect x="708.5" y="456.2" fill="none" stroke="#EEEEEE" stroke-miterlimit="10" width="72" height="72"/>
		<line fill="none" stroke="#EEEEEE" stroke-miterlimit="10" x1="780.5" y1="456.2" x2="708.5" y2="528.3"/>
		<line fill="none" stroke="#EEEEEE" stroke-miterlimit="10" x1="744.6" y1="456.2" x2="744.6" y2="528.3"/>
	</g>
	<g>
		<line fill="none" stroke="#EEEEEE" stroke-miterlimit="10" x1="629.4" y1="377" x2="701.4" y2="449"/>
		<line fill="none" stroke="#EEEEEE" stroke-miterlimit="10" x1="629.4" y1="413.1" x2="701.4" y2="413.1"/>
		<rect x="629.4" y="377" fill="none" stroke="#EEEEEE" stroke-miterlimit="10" width="72" height="72"/>
		<line fill="none" stroke="#EEEEEE" stroke-miterlimit="10" x1="665.4" y1="377" x2="665.4" y2="449"/>
		<line fill="none" stroke="#EEEEEE" stroke-miterlimit="10" x1="701.4" y1="377" x2="629.4" y2="449"/>
	</g>
	<g>
		<rect x="154.9" y="456.2" fill="none" stroke="#EEEEEE" stroke-miterlimit="10" width="72" height="72"/>
		<line fill="none" stroke="#EEEEEE" stroke-miterlimit="10" x1="154.9" y1="492.3" x2="226.9" y2="492.3"/>
	</g>
	<g>
		<rect x="233.8" y="377" fill="none" stroke="#EEEEEE" stroke-miterlimit="10" width="72" height="72"/>
		<line fill="none" stroke="#EEEEEE" stroke-miterlimit="10" x1="233.8" y1="377" x2="305.7" y2="449"/>
	</g>
	<g>
		<rect x="313" y="377" fill="none" stroke="#EEEEEE" stroke-miterlimit="10" width="72" height="72"/>
		<line fill="none" stroke="#EEEEEE" stroke-miterlimit="10" x1="313" y1="413.1" x2="384.9" y2="413.1"/>
		<line fill="none" stroke="#EEEEEE" stroke-miterlimit="10" x1="348.9" y1="377" x2="348.9" y2="449"/>
	</g>
	<g>
		<line fill="none" stroke="#EEEEEE" stroke-miterlimit="10" x1="75.5" y1="413.1" x2="147.5" y2="413.1"/>
		<rect x="75.5" y="377" fill="none" stroke="#EEEEEE" stroke-miterlimit="10" width="72" height="72"/>
		<line fill="none" stroke="#EEEEEE" stroke-miterlimit="10" x1="147.5" y1="377" x2="75.5" y2="449"/>
	</g>
	<g>
		<line fill="none" stroke="#EEEEEE" stroke-miterlimit="10" x1="75.7" y1="456.2" x2="147.7" y2="528.3"/>
		<rect x="75.7" y="456.2" fill="none" stroke="#EEEEEE" stroke-miterlimit="10" width="72" height="72"/>
		<line fill="none" stroke="#EEEEEE" stroke-miterlimit="10" x1="111.6" y1="456.2" x2="111.6" y2="528.3"/>
	</g>
	<g>
		<line fill="none" stroke="#EEEEEE" stroke-miterlimit="10" x1="313.3" y1="456.2" x2="385.3" y2="528.3"/>
		<rect x="313.3" y="456.2" fill="none" stroke="#EEEEEE" stroke-miterlimit="10" width="72" height="72"/>
		<line fill="none" stroke="#EEEEEE" stroke-miterlimit="10" x1="385.3" y1="456.2" x2="313.3" y2="528.3"/>
	</g>
	<g>
		<line fill="none" stroke="#EEEEEE" stroke-miterlimit="10" x1="-3.5" y1="492.3" x2="68.5" y2="492.3"/>
		<rect x="-3.5" y="456.2" fill="none" stroke="#EEEEEE" stroke-miterlimit="10" width="72" height="72"/>
		<line fill="none" stroke="#EEEEEE" stroke-miterlimit="10" x1="32.4" y1="456.2" x2="32.4" y2="528.3"/>
		<line fill="none" stroke="#EEEEEE" stroke-miterlimit="10" x1="68.5" y1="456.2" x2="-3.5" y2="528.3"/>
	</g>
	<g>
		<line fill="none" stroke="#EEEEEE" stroke-miterlimit="10" x1="-3.5" y1="413.1" x2="68.5" y2="413.1"/>
		<line fill="none" stroke="#EEEEEE" stroke-miterlimit="10" x1="-3.5" y1="377" x2="68.5" y2="449"/>
		<rect x="-3.5" y="377" fill="none" stroke="#EEEEEE" stroke-miterlimit="10" width="72" height="72"/>
		<line fill="none" stroke="#EEEEEE" stroke-miterlimit="10" x1="68.5" y1="377" x2="-3.5" y2="449"/>
	</g>
	<g>
		<line fill="none" stroke="#EEEEEE" stroke-miterlimit="10" x1="154.7" y1="377" x2="226.7" y2="449"/>
		<rect x="154.7" y="377" fill="none" stroke="#EEEEEE" stroke-miterlimit="10" width="72" height="72"/>
		<line fill="none" stroke="#EEEEEE" stroke-miterlimit="10" x1="226.7" y1="377" x2="154.7" y2="449"/>
		<line fill="none" stroke="#EEEEEE" stroke-miterlimit="10" x1="190.6" y1="377" x2="190.6" y2="449"/>
	</g>
	<g>
		<line fill="none" stroke="#EEEEEE" stroke-miterlimit="10" x1="234.1" y1="456.2" x2="306.1" y2="528.3"/>
		<line fill="none" stroke="#EEEEEE" stroke-miterlimit="10" x1="234.1" y1="492.3" x2="306.1" y2="492.3"/>
		<rect x="234.1" y="456.2" fill="none" stroke="#EEEEEE" stroke-miterlimit="10" width="72" height="72"/>
		<line fill="none" stroke="#EEEEEE" stroke-miterlimit="10" x1="270.1" y1="456.2" x2="270.1" y2="528.3"/>
		<line fill="none" stroke="#EEEEEE" stroke-miterlimit="10" x1="306.1" y1="456.2" x2="234.1" y2="528.3"/>
	</g>
	<g>
		<rect x="550.6" y="139.9" fill="none" stroke="#EEEEEE" stroke-miterlimit="10" width="71.5" height="71.5"/>
		<line fill="none" stroke="#EEEEEE" stroke-miterlimit="10" x1="550.6" y1="175.6" x2="622.2" y2="175.6"/>
	</g>
	<g>
		<rect x="629.8" y="60.3" fill="none" stroke="#EEEEEE" stroke-miterlimit="10" width="71.5" height="71.5"/>
		<line fill="none" stroke="#EEEEEE" stroke-miterlimit="10" x1="629.8" y1="60.3" x2="701.3" y2="131.9"/>
	</g>
	<g>
		<rect x="708.5" y="60.2" fill="none" stroke="#EEEEEE" stroke-miterlimit="10" width="72" height="72"/>
		<line fill="none" stroke="#EEEEEE" stroke-miterlimit="10" x1="708.5" y1="96.1" x2="780.5" y2="96.1"/>
		<line fill="none" stroke="#EEEEEE" stroke-miterlimit="10" x1="744.6" y1="60" x2="744.6" y2="132.2"/>
	</g>
	<g>
		<line fill="none" stroke="#EEEEEE" stroke-miterlimit="10" x1="471.4" y1="96.1" x2="543.3" y2="96.1"/>
		<rect x="471.4" y="60.2" fill="none" stroke="#EEEEEE" stroke-miterlimit="10" width="72" height="72"/>
		<line fill="none" stroke="#EEEEEE" stroke-miterlimit="10" x1="543.3" y1="60" x2="471.4" y2="132.2"/>
	</g>
	<g>
		<line fill="none" stroke="#EEEEEE" stroke-miterlimit="10" x1="471.5" y1="139.4" x2="543.5" y2="211.4"/>
		<rect x="471.5" y="139.4" fill="none" stroke="#EEEEEE" stroke-miterlimit="10" width="72" height="72"/>
		<line fill="none" stroke="#EEEEEE" stroke-miterlimit="10" x1="507.4" y1="139.4" x2="507.4" y2="211.4"/>
	</g>
	<g>
		<line fill="none" stroke="#EEEEEE" stroke-miterlimit="10" x1="708.5" y1="139.4" x2="780.5" y2="211.4"/>
		<rect x="708.5" y="139.4" fill="none" stroke="#EEEEEE" stroke-miterlimit="10" width="72" height="72"/>
		<line fill="none" stroke="#EEEEEE" stroke-miterlimit="10" x1="780.5" y1="139.4" x2="708.5" y2="211.4"/>
	</g>
	<g>
		<line fill="none" stroke="#EEEEEE" stroke-miterlimit="10" x1="392.3" y1="175.3" x2="464.3" y2="175.3"/>
		<rect x="392.3" y="139.4" fill="none" stroke="#EEEEEE" stroke-miterlimit="10" width="72" height="72"/>
		<line fill="none" stroke="#EEEEEE" stroke-miterlimit="10" x1="428.2" y1="139.4" x2="428.2" y2="211.4"/>
		<line fill="none" stroke="#EEEEEE" stroke-miterlimit="10" x1="464.3" y1="139.4" x2="392.3" y2="211.4"/>
	</g>
	<g>
		<line fill="none" stroke="#EEEEEE" stroke-miterlimit="10" x1="392" y1="96.1" x2="464.1" y2="96.1"/>
		<line fill="none" stroke="#EEEEEE" stroke-miterlimit="10" x1="392" y1="60" x2="464.1" y2="132.2"/>
		<rect x="392" y="60.2" fill="none" stroke="#EEEEEE" stroke-miterlimit="10" width="72" height="72"/>
		<line fill="none" stroke="#EEEEEE" stroke-miterlimit="10" x1="464.1" y1="60" x2="392" y2="132.2"/>
	</g>
	<g>
		<line fill="none" stroke="#EEEEEE" stroke-miterlimit="10" x1="550.6" y1="60" x2="622.5" y2="132.2"/>
		<rect x="550.6" y="60.2" fill="none" stroke="#EEEEEE" stroke-miterlimit="10" width="72" height="72"/>
		<line fill="none" stroke="#EEEEEE" stroke-miterlimit="10" x1="622.5" y1="60" x2="550.6" y2="132.2"/>
		<line fill="none" stroke="#EEEEEE" stroke-miterlimit="10" x1="586.5" y1="60" x2="586.5" y2="132.2"/>
	</g>
	<g>
		<line fill="none" stroke="#EEEEEE" stroke-miterlimit="10" x1="629.3" y1="139.4" x2="701.4" y2="211.4"/>
		<line fill="none" stroke="#EEEEEE" stroke-miterlimit="10" x1="629.3" y1="175.3" x2="701.4" y2="175.3"/>
		<rect x="629.3" y="139.4" fill="none" stroke="#EEEEEE" stroke-miterlimit="10" width="72" height="72"/>
		<line fill="none" stroke="#EEEEEE" stroke-miterlimit="10" x1="665.4" y1="139.4" x2="665.4" y2="211.4"/>
		<line fill="none" stroke="#EEEEEE" stroke-miterlimit="10" x1="701.4" y1="139.4" x2="629.3" y2="211.4"/>
	</g>
</g>
</svg>
