<?xml version="1.0" encoding="utf-8"?>
<!-- Generator: Adobe Illustrator 18.0.0, SVG Export Plug-In . SVG Version: 6.00 Build 0)  -->
<!DOCTYPE svg PUBLIC "-//W3C//DTD SVG 1.1//EN" "http://www.w3.org/Graphics/SVG/1.1/DTD/svg11.dtd">
<svg version="1.1" id="Layer_1" xmlns="http://www.w3.org/2000/svg" xmlns:xlink="http://www.w3.org/1999/xlink" x="0px" y="0px"
	 viewBox="0 0 505 304" enable-background="new 0 0 505 304" xml:space="preserve">
<g>
	<g>
		<rect x="50.7" y="50.8" fill="none" stroke="#414042" stroke-miterlimit="10" width="45.9" height="45.9"/>
		<line fill="none" stroke="#414042" stroke-miterlimit="10" x1="50.7" y1="73.7" x2="96.7" y2="73.7"/>
	</g>
	<g>
		<rect x="151.7" y="50.8" fill="none" stroke="#414042" stroke-miterlimit="10" width="45.9" height="45.9"/>
		<line fill="none" stroke="#414042" stroke-miterlimit="10" x1="151.7" y1="50.8" x2="197.6" y2="96.7"/>
	</g>
	<g>
		<rect x="101.3" y="0.3" fill="none" stroke="#414042" stroke-miterlimit="10" width="45.9" height="45.9"/>
		<line fill="none" stroke="#414042" stroke-miterlimit="10" x1="101.3" y1="23.2" x2="147.2" y2="23.2"/>
		<line fill="none" stroke="#414042" stroke-miterlimit="10" x1="124.2" y1="0.3" x2="124.2" y2="46.2"/>
	</g>
	<g>
		<line fill="none" stroke="#414042" stroke-miterlimit="10" x1="202.3" y1="23.2" x2="248" y2="23.2"/>
		<rect x="202.3" y="0.4" fill="none" stroke="#414042" stroke-miterlimit="10" width="45.6" height="45.6"/>
		<line fill="none" stroke="#414042" stroke-miterlimit="10" x1="248" y1="0.4" x2="202.3" y2="46"/>
	</g>
	<g>
		<line fill="none" stroke="#414042" stroke-miterlimit="10" x1="50.8" y1="0.3" x2="96.7" y2="46.2"/>
		<rect x="50.8" y="0.3" fill="none" stroke="#414042" stroke-miterlimit="10" width="45.9" height="45.9"/>
		<line fill="none" stroke="#414042" stroke-miterlimit="10" x1="73.7" y1="0.3" x2="73.7" y2="46.2"/>
	</g>
	<g>
		<line fill="none" stroke="#414042" stroke-miterlimit="10" x1="202.2" y1="50.8" x2="248.1" y2="96.7"/>
		<rect x="202.2" y="50.8" fill="none" stroke="#414042" stroke-miterlimit="10" width="45.9" height="45.9"/>
		<line fill="none" stroke="#414042" stroke-miterlimit="10" x1="248.1" y1="50.8" x2="202.2" y2="96.7"/>
	</g>
	<g>
		<line fill="none" stroke="#414042" stroke-miterlimit="10" x1="0.2" y1="73.7" x2="46.2" y2="73.7"/>
		<rect x="0.2" y="50.8" fill="none" stroke="#414042" stroke-miterlimit="10" width="45.9" height="45.9"/>
		<line fill="none" stroke="#414042" stroke-miterlimit="10" x1="23.2" y1="50.8" x2="23.2" y2="96.7"/>
		<line fill="none" stroke="#414042" stroke-miterlimit="10" x1="46.2" y1="50.8" x2="0.2" y2="96.7"/>
	</g>
	<g>
		<line fill="none" stroke="#414042" stroke-miterlimit="10" x1="101.2" y1="73.7" x2="147.1" y2="73.7"/>
		<line fill="none" stroke="#414042" stroke-miterlimit="10" x1="101.2" y1="50.8" x2="147.1" y2="96.7"/>
		<rect x="101.2" y="50.8" fill="none" stroke="#414042" stroke-miterlimit="10" width="45.9" height="45.9"/>
		<line fill="none" stroke="#414042" stroke-miterlimit="10" x1="147.1" y1="50.8" x2="101.2" y2="96.7"/>
	</g>
	<g>
		<line fill="none" stroke="#414042" stroke-miterlimit="10" x1="0.2" y1="0.3" x2="46.2" y2="46.2"/>
		<rect x="0.2" y="0.3" fill="none" stroke="#414042" stroke-miterlimit="10" width="45.9" height="45.9"/>
		<line fill="none" stroke="#414042" stroke-miterlimit="10" x1="46.2" y1="0.3" x2="0.2" y2="46.2"/>
		<line fill="none" stroke="#414042" stroke-miterlimit="10" x1="23.2" y1="0.3" x2="23.2" y2="46.2"/>
	</g>
	<g>
		<line fill="none" stroke="#414042" stroke-miterlimit="10" x1="151.8" y1="0.3" x2="197.7" y2="46.2"/>
		<line fill="none" stroke="#414042" stroke-miterlimit="10" x1="151.8" y1="23.2" x2="197.7" y2="23.2"/>
		<rect x="151.8" y="0.3" fill="none" stroke="#414042" stroke-miterlimit="10" width="45.9" height="45.9"/>
		<line fill="none" stroke="#414042" stroke-miterlimit="10" x1="174.8" y1="0.3" x2="174.8" y2="46.2"/>
		<line fill="none" stroke="#414042" stroke-miterlimit="10" x1="197.7" y1="0.3" x2="151.8" y2="46.2"/>
	</g>
	<g>
		<rect x="302.9" y="151.8" fill="none" stroke="#414042" stroke-miterlimit="10" width="45.9" height="45.9"/>
		<line fill="none" stroke="#414042" stroke-miterlimit="10" x1="302.9" y1="174.8" x2="348.8" y2="174.8"/>
	</g>
	<g>
		<rect x="404" y="152.1" fill="none" stroke="#414042" stroke-miterlimit="10" width="45.6" height="45.6"/>
		<line fill="none" stroke="#414042" stroke-miterlimit="10" x1="404" y1="152.1" x2="449.7" y2="197.7"/>
	</g>
	<g>
		<rect x="353.2" y="101.3" fill="none" stroke="#414042" stroke-miterlimit="10" width="45.9" height="45.9"/>
		<line fill="none" stroke="#414042" stroke-miterlimit="10" x1="353.2" y1="124.2" x2="399.1" y2="124.2"/>
		<line fill="none" stroke="#414042" stroke-miterlimit="10" x1="376.2" y1="101.3" x2="376.2" y2="147.2"/>
	</g>
	<g>
		<line fill="none" stroke="#414042" stroke-miterlimit="10" x1="454.3" y1="124.2" x2="500.2" y2="124.2"/>
		<rect x="454.3" y="101.3" fill="none" stroke="#414042" stroke-miterlimit="10" width="45.9" height="45.9"/>
		<line fill="none" stroke="#414042" stroke-miterlimit="10" x1="500.2" y1="101.3" x2="454.3" y2="147.2"/>
	</g>
	<g>
		<line fill="none" stroke="#414042" stroke-miterlimit="10" x1="302.6" y1="101.3" x2="348.6" y2="147.2"/>
		<rect x="302.6" y="101.3" fill="none" stroke="#414042" stroke-miterlimit="10" width="45.9" height="45.9"/>
		<line fill="none" stroke="#414042" stroke-miterlimit="10" x1="325.6" y1="101.3" x2="325.6" y2="147.2"/>
	</g>
	<g>
		<line fill="none" stroke="#414042" stroke-miterlimit="10" x1="454.3" y1="151.8" x2="500.2" y2="197.7"/>
		<rect x="454.3" y="151.8" fill="none" stroke="#414042" stroke-miterlimit="10" width="45.9" height="45.9"/>
		<line fill="none" stroke="#414042" stroke-miterlimit="10" x1="500.2" y1="151.8" x2="454.3" y2="197.7"/>
	</g>
	<g>
		<line fill="none" stroke="#414042" stroke-miterlimit="10" x1="252.6" y1="174.9" x2="298.2" y2="174.9"/>
		<rect x="252.6" y="152.1" fill="none" stroke="#414042" stroke-miterlimit="10" width="45.6" height="45.6"/>
		<line fill="none" stroke="#414042" stroke-miterlimit="10" x1="275.4" y1="152.1" x2="275.4" y2="197.7"/>
		<line fill="none" stroke="#414042" stroke-miterlimit="10" x1="298.2" y1="152.1" x2="252.6" y2="197.7"/>
	</g>
	<g>
		<line fill="none" stroke="#414042" stroke-miterlimit="10" x1="353.5" y1="174.8" x2="399.4" y2="174.8"/>
		<line fill="none" stroke="#414042" stroke-miterlimit="10" x1="353.5" y1="151.8" x2="399.4" y2="197.7"/>
		<rect x="353.5" y="151.8" fill="none" stroke="#414042" stroke-miterlimit="10" width="45.9" height="45.9"/>
		<line fill="none" stroke="#414042" stroke-miterlimit="10" x1="399.4" y1="151.8" x2="353.5" y2="197.7"/>
	</g>
	<g>
		<line fill="none" stroke="#414042" stroke-miterlimit="10" x1="252.1" y1="101.3" x2="298" y2="147.2"/>
		<rect x="252.1" y="101.3" fill="none" stroke="#414042" stroke-miterlimit="10" width="45.9" height="45.9"/>
		<line fill="none" stroke="#414042" stroke-miterlimit="10" x1="298" y1="101.3" x2="252.1" y2="147.2"/>
		<line fill="none" stroke="#414042" stroke-miterlimit="10" x1="275" y1="101.3" x2="275" y2="147.2"/>
	</g>
	<g>
		<line fill="none" stroke="#414042" stroke-miterlimit="10" x1="403.8" y1="101.3" x2="449.7" y2="147.2"/>
		<line fill="none" stroke="#414042" stroke-miterlimit="10" x1="403.8" y1="124.2" x2="449.7" y2="124.2"/>
		<rect x="403.8" y="101.3" fill="none" stroke="#414042" stroke-miterlimit="10" width="45.9" height="45.9"/>
		<line fill="none" stroke="#414042" stroke-miterlimit="10" x1="426.7" y1="101.3" x2="426.7" y2="147.2"/>
		<line fill="none" stroke="#414042" stroke-miterlimit="10" x1="449.7" y1="101.3" x2="403.8" y2="147.2"/>
	</g>
	<g>
		<rect x="101" y="101.6" fill="none" stroke="#414042" stroke-miterlimit="10" width="45.6" height="45.6"/>
		<line fill="none" stroke="#414042" stroke-miterlimit="10" x1="101" y1="124.4" x2="146.6" y2="124.4"/>
	</g>
	<g>
		<rect x="50.7" y="101.5" fill="none" stroke="#414042" stroke-miterlimit="10" width="45.7" height="45.7"/>
		<line fill="none" stroke="#414042" stroke-miterlimit="10" x1="50.7" y1="101.5" x2="96.3" y2="147.2"/>
	</g>
	<g>
		<rect x="50.8" y="152.1" fill="none" stroke="#414042" stroke-miterlimit="10" width="45.6" height="45.6"/>
		<line fill="none" stroke="#414042" stroke-miterlimit="10" x1="50.8" y1="174.9" x2="96.5" y2="174.9"/>
		<line fill="none" stroke="#414042" stroke-miterlimit="10" x1="73.6" y1="152.1" x2="73.6" y2="197.7"/>
	</g>
	<g>
		<line fill="none" stroke="#414042" stroke-miterlimit="10" x1="0.4" y1="124.4" x2="46" y2="124.4"/>
		<rect x="0.4" y="101.5" fill="none" stroke="#414042" stroke-miterlimit="10" width="45.7" height="45.7"/>
		<line fill="none" stroke="#414042" stroke-miterlimit="10" x1="46" y1="101.5" x2="0.4" y2="147.2"/>
	</g>
	<g>
		<line fill="none" stroke="#414042" stroke-miterlimit="10" x1="151.4" y1="151.8" x2="197.4" y2="197.7"/>
		<rect x="151.4" y="151.8" fill="none" stroke="#414042" stroke-miterlimit="10" width="45.9" height="45.9"/>
		<line fill="none" stroke="#414042" stroke-miterlimit="10" x1="174.4" y1="151.8" x2="174.4" y2="197.7"/>
	</g>
	<g>
		<line fill="none" stroke="#414042" stroke-miterlimit="10" x1="0.3" y1="151.8" x2="46.2" y2="197.7"/>
		<rect x="0.3" y="151.8" fill="none" stroke="#414042" stroke-miterlimit="10" width="45.9" height="45.9"/>
		<line fill="none" stroke="#414042" stroke-miterlimit="10" x1="46.2" y1="151.8" x2="0.3" y2="197.7"/>
	</g>
	<g>
		<line fill="none" stroke="#414042" stroke-miterlimit="10" x1="201.8" y1="124.4" x2="247.4" y2="124.4"/>
		<rect x="201.8" y="101.6" fill="none" stroke="#414042" stroke-miterlimit="10" width="45.6" height="45.6"/>
		<line fill="none" stroke="#414042" stroke-miterlimit="10" x1="224.6" y1="101.6" x2="224.6" y2="147.2"/>
		<line fill="none" stroke="#414042" stroke-miterlimit="10" x1="247.4" y1="101.6" x2="201.8" y2="147.2"/>
	</g>
	<g>
		<line fill="none" stroke="#414042" stroke-miterlimit="10" x1="101.1" y1="174.9" x2="146.8" y2="174.9"/>
		<line fill="none" stroke="#414042" stroke-miterlimit="10" x1="101.1" y1="152.1" x2="146.8" y2="197.7"/>
		<rect x="101.1" y="152.1" fill="none" stroke="#414042" stroke-miterlimit="10" width="45.7" height="45.7"/>
		<line fill="none" stroke="#414042" stroke-miterlimit="10" x1="146.8" y1="152.1" x2="101.1" y2="197.7"/>
	</g>
	<g>
		<line fill="none" stroke="#414042" stroke-miterlimit="10" x1="202" y1="151.8" x2="247.9" y2="197.7"/>
		<rect x="202" y="151.8" fill="none" stroke="#414042" stroke-miterlimit="10" width="45.9" height="45.9"/>
		<line fill="none" stroke="#414042" stroke-miterlimit="10" x1="247.9" y1="151.8" x2="202" y2="197.7"/>
		<line fill="none" stroke="#414042" stroke-miterlimit="10" x1="225" y1="151.8" x2="225" y2="197.7"/>
	</g>
	<g>
		<line fill="none" stroke="#414042" stroke-miterlimit="10" x1="151.2" y1="101.3" x2="197.2" y2="147.2"/>
		<line fill="none" stroke="#414042" stroke-miterlimit="10" x1="151.2" y1="124.2" x2="197.2" y2="124.2"/>
		<rect x="151.2" y="101.3" fill="none" stroke="#414042" stroke-miterlimit="10" width="45.9" height="45.9"/>
		<line fill="none" stroke="#414042" stroke-miterlimit="10" x1="174.2" y1="101.3" x2="174.2" y2="147.2"/>
		<line fill="none" stroke="#414042" stroke-miterlimit="10" x1="197.2" y1="101.3" x2="151.2" y2="147.2"/>
	</g>
	<g>
		<rect x="353.4" y="202.3" fill="none" stroke="#414042" stroke-miterlimit="10" width="45.9" height="45.9"/>
		<line fill="none" stroke="#414042" stroke-miterlimit="10" x1="353.4" y1="225.3" x2="399.3" y2="225.3"/>
	</g>
	<g>
		<rect x="303" y="202.3" fill="none" stroke="#414042" stroke-miterlimit="10" width="45.9" height="45.9"/>
		<line fill="none" stroke="#414042" stroke-miterlimit="10" x1="303" y1="202.3" x2="348.9" y2="248.2"/>
	</g>
	<g>
		<rect x="303.3" y="253.1" fill="none" stroke="#414042" stroke-miterlimit="10" width="45.6" height="45.6"/>
		<line fill="none" stroke="#414042" stroke-miterlimit="10" x1="303.3" y1="275.9" x2="349" y2="275.9"/>
		<line fill="none" stroke="#414042" stroke-miterlimit="10" x1="326.2" y1="253.1" x2="326.2" y2="298.8"/>
	</g>
	<g>
		<line fill="none" stroke="#414042" stroke-miterlimit="10" x1="252.5" y1="225.3" x2="298.4" y2="225.3"/>
		<rect x="252.5" y="202.3" fill="none" stroke="#414042" stroke-miterlimit="10" width="45.9" height="45.9"/>
		<line fill="none" stroke="#414042" stroke-miterlimit="10" x1="298.4" y1="202.3" x2="252.5" y2="248.2"/>
	</g>
	<g>
		<line fill="none" stroke="#414042" stroke-miterlimit="10" x1="404.1" y1="252.8" x2="450" y2="298.8"/>
		<rect x="404.1" y="252.8" fill="none" stroke="#414042" stroke-miterlimit="10" width="45.9" height="45.9"/>
		<line fill="none" stroke="#414042" stroke-miterlimit="10" x1="427.1" y1="252.8" x2="427.1" y2="298.8"/>
	</g>
	<g>
		<line fill="none" stroke="#414042" stroke-miterlimit="10" x1="252.8" y1="252.8" x2="298.8" y2="298.8"/>
		<rect x="252.8" y="252.8" fill="none" stroke="#414042" stroke-miterlimit="10" width="45.9" height="45.9"/>
		<line fill="none" stroke="#414042" stroke-miterlimit="10" x1="298.8" y1="252.8" x2="252.8" y2="298.8"/>
	</g>
	<g>
		<line fill="none" stroke="#414042" stroke-miterlimit="10" x1="454.3" y1="225.1" x2="500" y2="225.1"/>
		<rect x="454.3" y="202.3" fill="none" stroke="#414042" stroke-miterlimit="10" width="45.6" height="45.6"/>
		<line fill="none" stroke="#414042" stroke-miterlimit="10" x1="477.1" y1="202.3" x2="477.1" y2="248"/>
		<line fill="none" stroke="#414042" stroke-miterlimit="10" x1="500" y1="202.3" x2="454.3" y2="248"/>
	</g>
	<g>
		<line fill="none" stroke="#414042" stroke-miterlimit="10" x1="353.6" y1="275.8" x2="399.5" y2="275.8"/>
		<line fill="none" stroke="#414042" stroke-miterlimit="10" x1="353.6" y1="252.8" x2="399.5" y2="298.8"/>
		<rect x="353.6" y="252.8" fill="none" stroke="#414042" stroke-miterlimit="10" width="45.9" height="45.9"/>
		<line fill="none" stroke="#414042" stroke-miterlimit="10" x1="399.5" y1="252.8" x2="353.6" y2="298.8"/>
	</g>
	<g>
		<line fill="none" stroke="#414042" stroke-miterlimit="10" x1="454.3" y1="252.8" x2="500.2" y2="298.8"/>
		<rect x="454.3" y="252.8" fill="none" stroke="#414042" stroke-miterlimit="10" width="45.9" height="45.9"/>
		<line fill="none" stroke="#414042" stroke-miterlimit="10" x1="500.2" y1="252.8" x2="454.3" y2="298.8"/>
		<line fill="none" stroke="#414042" stroke-miterlimit="10" x1="477.3" y1="252.8" x2="477.3" y2="298.8"/>
	</g>
	<g>
		<line fill="none" stroke="#414042" stroke-miterlimit="10" x1="403.9" y1="202.3" x2="449.8" y2="248.2"/>
		<line fill="none" stroke="#414042" stroke-miterlimit="10" x1="403.9" y1="225.3" x2="449.8" y2="225.3"/>
		<rect x="403.9" y="202.3" fill="none" stroke="#414042" stroke-miterlimit="10" width="45.9" height="45.9"/>
		<line fill="none" stroke="#414042" stroke-miterlimit="10" x1="426.8" y1="202.3" x2="426.8" y2="248.2"/>
		<line fill="none" stroke="#414042" stroke-miterlimit="10" x1="449.8" y1="202.3" x2="403.9" y2="248.2"/>
	</g>
	<g>
		<rect x="101.3" y="252.8" fill="none" stroke="#414042" stroke-miterlimit="10" width="45.9" height="45.9"/>
		<line fill="none" stroke="#414042" stroke-miterlimit="10" x1="101.3" y1="275.8" x2="147.2" y2="275.8"/>
	</g>
	<g>
		<rect x="151.6" y="202.3" fill="none" stroke="#414042" stroke-miterlimit="10" width="45.9" height="45.9"/>
		<line fill="none" stroke="#414042" stroke-miterlimit="10" x1="151.6" y1="202.3" x2="197.5" y2="248.2"/>
	</g>
	<g>
		<rect x="202.1" y="202.3" fill="none" stroke="#414042" stroke-miterlimit="10" width="45.9" height="45.9"/>
		<line fill="none" stroke="#414042" stroke-miterlimit="10" x1="202.1" y1="225.3" x2="248" y2="225.3"/>
		<line fill="none" stroke="#414042" stroke-miterlimit="10" x1="225" y1="202.3" x2="225" y2="248.2"/>
	</g>
	<g>
		<line fill="none" stroke="#414042" stroke-miterlimit="10" x1="50.7" y1="225.3" x2="96.6" y2="225.3"/>
		<rect x="50.7" y="202.3" fill="none" stroke="#414042" stroke-miterlimit="10" width="45.9" height="45.9"/>
		<line fill="none" stroke="#414042" stroke-miterlimit="10" x1="96.6" y1="202.3" x2="50.7" y2="248.2"/>
	</g>
	<g>
		<line fill="none" stroke="#414042" stroke-miterlimit="10" x1="50.8" y1="252.8" x2="96.7" y2="298.8"/>
		<rect x="50.8" y="252.8" fill="none" stroke="#414042" stroke-miterlimit="10" width="45.9" height="45.9"/>
		<line fill="none" stroke="#414042" stroke-miterlimit="10" x1="73.7" y1="252.8" x2="73.7" y2="298.8"/>
	</g>
	<g>
		<line fill="none" stroke="#414042" stroke-miterlimit="10" x1="202.3" y1="252.8" x2="248.2" y2="298.8"/>
		<rect x="202.3" y="252.8" fill="none" stroke="#414042" stroke-miterlimit="10" width="45.9" height="45.9"/>
		<line fill="none" stroke="#414042" stroke-miterlimit="10" x1="248.2" y1="252.8" x2="202.3" y2="298.8"/>
	</g>
	<g>
		<line fill="none" stroke="#414042" stroke-miterlimit="10" x1="0.3" y1="275.8" x2="46.2" y2="275.8"/>
		<rect x="0.3" y="252.8" fill="none" stroke="#414042" stroke-miterlimit="10" width="45.9" height="45.9"/>
		<line fill="none" stroke="#414042" stroke-miterlimit="10" x1="23.2" y1="252.8" x2="23.2" y2="298.8"/>
		<line fill="none" stroke="#414042" stroke-miterlimit="10" x1="46.2" y1="252.8" x2="0.3" y2="298.8"/>
	</g>
	<g>
		<line fill="none" stroke="#414042" stroke-miterlimit="10" x1="0.3" y1="225.3" x2="46.2" y2="225.3"/>
		<line fill="none" stroke="#414042" stroke-miterlimit="10" x1="0.3" y1="202.3" x2="46.2" y2="248.2"/>
		<rect x="0.3" y="202.3" fill="none" stroke="#414042" stroke-miterlimit="10" width="45.9" height="45.9"/>
		<line fill="none" stroke="#414042" stroke-miterlimit="10" x1="46.2" y1="202.3" x2="0.3" y2="248.2"/>
	</g>
	<g>
		<line fill="none" stroke="#414042" stroke-miterlimit="10" x1="101.2" y1="202.3" x2="147.1" y2="248.2"/>
		<rect x="101.2" y="202.3" fill="none" stroke="#414042" stroke-miterlimit="10" width="45.9" height="45.9"/>
		<line fill="none" stroke="#414042" stroke-miterlimit="10" x1="147.1" y1="202.3" x2="101.2" y2="248.2"/>
		<line fill="none" stroke="#414042" stroke-miterlimit="10" x1="124.1" y1="202.3" x2="124.1" y2="248.2"/>
	</g>
	<g>
		<line fill="none" stroke="#414042" stroke-miterlimit="10" x1="151.8" y1="252.8" x2="197.7" y2="298.8"/>
		<line fill="none" stroke="#414042" stroke-miterlimit="10" x1="151.8" y1="275.8" x2="197.7" y2="275.8"/>
		<rect x="151.8" y="252.8" fill="none" stroke="#414042" stroke-miterlimit="10" width="45.9" height="45.9"/>
		<line fill="none" stroke="#414042" stroke-miterlimit="10" x1="174.8" y1="252.8" x2="174.8" y2="298.8"/>
		<line fill="none" stroke="#414042" stroke-miterlimit="10" x1="197.7" y1="252.8" x2="151.8" y2="298.8"/>
	</g>
	<g>
		<rect x="353.6" y="51.1" fill="none" stroke="#414042" stroke-miterlimit="10" width="45.6" height="45.6"/>
		<line fill="none" stroke="#414042" stroke-miterlimit="10" x1="353.6" y1="73.9" x2="399.3" y2="73.9"/>
	</g>
	<g>
		<rect x="404.1" y="0.4" fill="none" stroke="#414042" stroke-miterlimit="10" width="45.6" height="45.6"/>
		<line fill="none" stroke="#414042" stroke-miterlimit="10" x1="404.1" y1="0.4" x2="449.7" y2="46"/>
	</g>
	<g>
		<rect x="454.3" y="0.3" fill="none" stroke="#414042" stroke-miterlimit="10" width="45.9" height="45.9"/>
		<line fill="none" stroke="#414042" stroke-miterlimit="10" x1="454.3" y1="23.2" x2="500.2" y2="23.2"/>
		<line fill="none" stroke="#414042" stroke-miterlimit="10" x1="477.3" y1="0.2" x2="477.3" y2="46.2"/>
	</g>
	<g>
		<line fill="none" stroke="#414042" stroke-miterlimit="10" x1="303.1" y1="23.2" x2="349" y2="23.2"/>
		<rect x="303.1" y="0.3" fill="none" stroke="#414042" stroke-miterlimit="10" width="45.9" height="45.9"/>
		<line fill="none" stroke="#414042" stroke-miterlimit="10" x1="349" y1="0.2" x2="303.1" y2="46.2"/>
	</g>
	<g>
		<line fill="none" stroke="#414042" stroke-miterlimit="10" x1="303.2" y1="50.8" x2="349.1" y2="96.7"/>
		<rect x="303.2" y="50.8" fill="none" stroke="#414042" stroke-miterlimit="10" width="45.9" height="45.9"/>
		<line fill="none" stroke="#414042" stroke-miterlimit="10" x1="326.1" y1="50.8" x2="326.1" y2="96.7"/>
	</g>
	<g>
		<line fill="none" stroke="#414042" stroke-miterlimit="10" x1="454.3" y1="50.8" x2="500.2" y2="96.7"/>
		<rect x="454.3" y="50.8" fill="none" stroke="#414042" stroke-miterlimit="10" width="45.9" height="45.9"/>
		<line fill="none" stroke="#414042" stroke-miterlimit="10" x1="500.2" y1="50.8" x2="454.3" y2="96.7"/>
	</g>
	<g>
		<line fill="none" stroke="#414042" stroke-miterlimit="10" x1="252.7" y1="73.7" x2="298.6" y2="73.7"/>
		<rect x="252.7" y="50.8" fill="none" stroke="#414042" stroke-miterlimit="10" width="45.9" height="45.9"/>
		<line fill="none" stroke="#414042" stroke-miterlimit="10" x1="275.6" y1="50.8" x2="275.6" y2="96.7"/>
		<line fill="none" stroke="#414042" stroke-miterlimit="10" x1="298.6" y1="50.8" x2="252.7" y2="96.7"/>
	</g>
	<g>
		<line fill="none" stroke="#414042" stroke-miterlimit="10" x1="252.5" y1="23.2" x2="298.5" y2="23.2"/>
		<line fill="none" stroke="#414042" stroke-miterlimit="10" x1="252.5" y1="0.2" x2="298.5" y2="46.2"/>
		<rect x="252.5" y="0.3" fill="none" stroke="#414042" stroke-miterlimit="10" width="45.9" height="45.9"/>
		<line fill="none" stroke="#414042" stroke-miterlimit="10" x1="298.5" y1="0.2" x2="252.5" y2="46.2"/>
	</g>
	<g>
		<line fill="none" stroke="#414042" stroke-miterlimit="10" x1="353.6" y1="0.2" x2="399.5" y2="46.2"/>
		<rect x="353.6" y="0.3" fill="none" stroke="#414042" stroke-miterlimit="10" width="45.9" height="45.9"/>
		<line fill="none" stroke="#414042" stroke-miterlimit="10" x1="399.5" y1="0.2" x2="353.6" y2="46.2"/>
		<line fill="none" stroke="#414042" stroke-miterlimit="10" x1="376.5" y1="0.2" x2="376.5" y2="46.2"/>
	</g>
	<g>
		<line fill="none" stroke="#414042" stroke-miterlimit="10" x1="403.8" y1="50.8" x2="449.8" y2="96.7"/>
		<line fill="none" stroke="#414042" stroke-miterlimit="10" x1="403.8" y1="73.7" x2="449.8" y2="73.7"/>
		<rect x="403.8" y="50.8" fill="none" stroke="#414042" stroke-miterlimit="10" width="45.9" height="45.9"/>
		<line fill="none" stroke="#414042" stroke-miterlimit="10" x1="426.8" y1="50.8" x2="426.8" y2="96.7"/>
		<line fill="none" stroke="#414042" stroke-miterlimit="10" x1="449.8" y1="50.8" x2="403.8" y2="96.7"/>
	</g>
</g>
</svg>
